<svg xmlns="http://www.w3.org/2000/svg" viewBox="0 0 24 24" width="24" height="24"><path fill="#2f66ce" d="M2 8L8.93 4L11.1 5.25L4.17 9.25ZM2 13L8.93 9L11.1 10.25L4.17 14.25ZM2 18L8.93 14L11.1 15.25L4.17 19.25ZM18 8L22.33 10.5L18 13L13.67 10.5Z"/><path fill="#1d479a" d="M2 8L4.17 9.25L4.17 10.45L2 9.2ZM4.17 9.25L11.1 5.25L11.1 6.45L4.17 10.45ZM2 13L4.17 14.25L4.17 15.45L2 14.2ZM4.17 14.25L11.1 10.25L11.1 11.45L4.17 15.45ZM2 18L4.17 19.25L4.17 20.45L2 19.2ZM4.17 19.25L11.1 15.25L11.1 16.45L4.17 20.45ZM13.67 10.5L18 13L18 18L13.67 15.5ZM18 13L22.33 10.5L22.33 15.5L18 18Z"/></svg>
